Coordinates
version=1
nRows=14
nColumns=36
inDegrees=yes

Units are S.I. units (second, meters, Newtons, ...)
If the header above contains a line with 'inDegrees', this indicates whether rotational values are in degrees (yes) or radians (no).

endheader
time	pelvis_tilt	pelvis_list	pelvis_rotation	pelvis_tx	pelvis_ty	pelvis_tz	hip_flexion_r	hip_adduction_r	hip_rotation_r	knee_angle_r	knee_angle_r_beta	ankle_angle_r	subtalar_angle_r	mtp_angle_r	hip_flexion_l	hip_adduction_l	hip_rotation_l	knee_angle_l	knee_angle_l_beta	ankle_angle_l	subtalar_angle_l	mtp_angle_l	lumbar_extension	lumbar_bending	lumbar_rotation	arm_flex_r	arm_add_r	arm_rot_r	elbow_flex_r	pro_sup_r	arm_flex_l	arm_add_l	arm_rot_l	elbow_flex_l	pro_sup_l
      3.70000000	     -6.60262572	      0.40413813	     -6.29409613	      0.98490971	      0.83931774	      0.10505699	     28.92102133	     -3.31476442	     -0.60583857	     59.51954368	      1.03881201	     35.52418963	     -4.33985480	     -7.49999987	     32.91405899	     -2.60042243	      2.97052566	     65.21513089	      1.13821876	     30.65475773	    -11.25675659	     -7.49999987	     -2.78021588	      1.11409075	      2.04872782	     -5.03754920	    -19.50245759	     25.76270722	     31.60102726	     64.38569806	    -11.03189322	    -18.36748494	     18.43594458	     45.49611707	     68.41883145
      3.71666670	     -6.60760314	      0.44077779	     -6.20105423	      0.98411513	      0.83771978	      0.10371166	     28.08206163	     -3.64769803	     -1.06294979	     58.30797269	      1.01766610	     36.89079743	     -3.05858317	     -7.49999987	     32.28142911	     -2.63416568	      2.93436883	     64.35154993	      1.12314643	     30.96612959	    -10.70054019	     -7.49999987	     -1.81202896	      0.98136352	      1.82157222	     -3.97756157	    -18.97299568	     26.27776254	     31.19126032	     64.26837451	     -8.40140494	    -17.07242638	     19.17331584	     43.98852788	     68.44445048
      3.73333330	     -6.93164280	      0.47241592	     -6.20840590	      0.98406150	      0.84338802	      0.10413301	     27.50909063	     -3.80023844	     -1.44219230	     56.58902104	      0.98766474	     36.91217465	     -2.88642113	     -7.49999987	     31.52914273	     -2.80538037	      2.66747928	     62.46145189	      1.09015799	     30.42831453	    -10.48834327	     -7.49999987	     -0.33337068	      1.08255592	      2.42134410	     -3.33412678	    -18.58579591	     27.62121235	     30.86515869	     63.44357115	     -5.72931810	    -16.24700654	     22.43274465	     41.55712391	     68.18679972
      3.75000000	     -7.60492982	      0.51726904	     -6.10698676	      0.97928926	      0.85706401	      0.10053395	     27.06985005	     -3.88807493	     -1.77195937	     53.75504707	      0.93820256	     35.82807560	     -3.05538478	     -7.49999987	     30.95704812	     -2.92233417	      2.26428663	     59.63339669	      1.04079912	     29.28798471	     -9.94334882	     -7.49999987	      1.37881707	      1.14130638	      2.28896164	     -3.01403465	    -18.56927539	     27.61702006	     32.37493130	     63.30316259	     -4.67685823	    -15.63576285	     22.45902933	     42.98445007	     67.91411848
      3.76666670	     -7.11108915	      0.38619269	     -5.82339490	      0.97962451	      0.86910459	      0.10087492	     25.18026652	     -4.05464642	     -2.64372717	     50.66095426	      0.88420045	     34.44526293	     -2.34838764	     -7.49999987	     28.90982166	     -2.96279698	      2.18180939	     56.37369656	      0.98390662	     27.56283272	    -10.01881342	     -7.49999987	      1.19594054	      1.27353158	      2.58853853	     -2.52366065	    -19.55752724	     28.48796322	     36.38612763	     63.05522377	     -3.04085604	    -15.87511888	     24.39421327	     46.91447230	     68.04244667
      3.78333330	     -7.13546582	      0.11224900	     -5.44342130	      0.97476273	      0.88889507	      0.09687845	     23.49750635	     -3.89606578	     -3.38436124	     46.55089985	      0.81246647	     32.05583335	     -2.24583599	     -7.49999987	     27.45085218	     -3.18183543	      1.90192851	     52.71785667	      0.92010017	     25.33556784	     -9.98030581	     -7.49999987	      1.74622502	      1.59872614	      2.70296098	     -2.56941041	    -20.82834908	     28.55295644	     41.07267807	     62.64527324	     -1.67484670	    -16.09136988	     25.54124169	     52.55179652	     67.56480681
      3.80000000	     -7.19536289	     -0.03767635	     -5.22646846	      0.97443590	      0.89940575	      0.10210631	     21.95219983	     -3.59680403	     -3.93015309	     42.71238609	      0.74547177	     29.82273457	     -2.09897317	     -7.49999987	     25.57886667	     -3.54577630	      1.24458524	     48.48223773	      0.84617468	     23.14689709	     -9.65588005	     -7.49999987	      2.38037457	      1.48834393	      2.65975578	     -2.50649160	    -22.47928904	     28.65248076	     48.90565726	     62.59967285	     -0.14754486	    -17.70588586	     28.06630422	     61.31354484	     67.77656183
      3.81666670	     -7.32811992	     -0.15536718	     -5.09101939	      0.97408067	      0.91259836	      0.10209066	     20.31739375	     -3.26449657	     -4.43725587	     38.51781902	      0.67226276	     27.17783010	     -2.22102215	     -7.49999987	     23.38193169	     -3.84607537	      0.48733106	     43.36216384	      0.75681253	     20.78905250	     -9.25144572	     -7.49999987	      2.76916912	      1.45034100	      4.16951082	     -4.94389707	    -23.53090228	     24.34240210	     57.59531053	     63.50788935	      2.90680139	    -19.00183650	     32.09596972	     68.33271965	     66.81101980
      3.83333330	     -6.95465825	     -0.27928615	     -5.19415493	      0.97621161	      0.93815142	      0.09677655	     17.41274800	     -2.93799423	     -4.69326065	     33.02375653	      0.57637328	     23.74677235	     -2.38919566	     -7.49999987	     20.04142640	     -3.95726613	     -0.48350589	     37.23668649	      0.64990278	     17.31199690	     -9.05010643	     -7.49999987	      2.88434197	      1.44223965	      3.90036305	     -4.30481786	    -25.01735478	     25.05682253	     63.58997042	     64.22591400	      4.38101180	    -19.79998108	     33.17480917	     73.82300998	     67.32266630
      3.85000000	     -6.79438827	     -0.37327303	     -5.57800294	      0.97562628	      0.95065743	      0.09712101	     14.85765408	     -2.59320490	     -5.07280648	     27.81060392	      0.48538661	     20.63277580	     -1.82782229	     -7.49999987	     17.22390370	     -4.07782084	     -1.33811113	     31.81987510	      0.55536159	     14.41577550	     -8.49399824	     -7.49999987	      3.12756553	      1.50777578	      3.91522970	     -4.25921688	    -27.43426144	     25.86893404	     72.25283307	     65.17604986	      6.35964743	    -21.25350473	     34.60377224	     81.68847033	     67.84908223
      3.86666670	     -6.99592379	     -0.33512739	     -5.92329691	      0.97580818	      0.96197250	      0.09829259	     13.23254658	     -2.32926182	     -5.18354533	     23.76544453	      0.41478526	     18.06031565	     -1.32457440	     -7.49999987	     15.31937140	     -4.11726887	     -2.21640314	     27.53195402	      0.48052325	     12.54105719	     -7.42746648	     -7.49999987	      3.40939428	      1.49476945	      7.88752475	     -9.53227610	    -27.79244438	     16.48153367	     82.79230904	     74.78707248	     13.49741521	    -20.99337819	     40.75780873	     84.73962533	     69.50165459
      3.88333330	     -6.83629036	     -0.24698161	     -6.16447859	      0.97534203	      0.97101212	      0.09814822	     11.25723841	     -2.12145804	     -5.19193124	     19.73273374	      0.34440117	     15.74021402	     -1.03374633	     -7.49999987	     13.23872739	     -4.00300467	     -2.99108530	     23.49046786	      0.40998601	     11.01432029	     -6.39652217	     -7.49999987	      3.38355290	      1.33933002	      7.54328801	     -8.55303547	    -28.92757840	     16.64601258	     88.84753451	     75.28391434	     16.83522246	    -21.71633186	     41.36202524	     88.58674298	     69.71753943
      3.90000000	     -6.77953695	     -0.00995762	     -6.33637259	      0.97523339	      0.97724442	      0.09838308	      9.51172588	     -2.04326685	     -4.99695764	     16.01014168	      0.27942969	     13.74382492	     -0.67886005	     -7.49999987	     11.29039162	     -3.72219489	     -3.87395964	     19.48084733	      0.34000493	      9.72135225	     -5.09979959	     -7.49999987	      3.37571619	      1.05958620	     11.44325166	    -12.88216570	    -28.71368850	      9.79033068	     96.70651429	     80.94163503	     23.66158715	    -21.38792359	     47.48863532	     90.55255463	     71.11086770
      3.91666670	     -6.76420990	      0.29754343	     -6.53211451	      0.98000543	      0.98170416	      0.09655018	      8.03529112	     -2.14762960	     -5.05019135	     12.99772885	      0.22685316	     11.89812482	     -0.42452928	     -7.49999987	      9.28447046	     -3.25018606	     -4.64064130	     15.48421297	      0.27025050	      8.35411821	     -3.81604819	     -7.49999987	      4.00981549	      0.81077255	     11.48200059	    -12.61534473	    -29.28559425	      9.72670677	    100.62684814	     81.17694751	     25.04176164	    -22.07507808	     47.34621690	     93.44858071	     71.26154176
